<svg id="Layer_2" data-name="Layer 2" xmlns="http://www.w3.org/2000/svg" viewBox="0 0 454.07 454.47"><defs><style>.cls-1{fill:#007eff;}</style></defs><path class="cls-1" d="M286.5,142.29s36.21,34.28,71.46-1.78c0,0,16.61-27.8-1-51.37,0,0-32.46-38-70.5,0,0,0-8.36,10.07-8.36,20.15l-.53,131.25s-9.32,65.89-75.32,75.32c0,0-101.58,8.14-97.72-97.72,0,0,6.86-62.14,75.22-75.21,0,0,32.35-1.93,45.21,7.07v52.12s-30.75-38.41-68.68,0c0,0-22.34,22.92,0,54.13,0,0,28.61,40,69.43,0,0,0,9.39-12.34,9.39-24.87V107.79s6.1-72.42,78.63-78.64c0,0,93-6.49,94,94,0,0-5.6,70.31-79.31,79.31,0,0-33.21-.64-41.79-8.25Z" transform="translate(-29.46 -29.06)"/><path d="M91.93,425.51s.11-44.72.11-49.76-6.54-4.93-6.54-4.93c-5,0-6.86,4.93-6.86,4.93v26.62A31.28,31.28,0,1,0,92,428c0-.86-.05-1.71-.12-2.55ZM60.75,445.93A17.9,17.9,0,1,1,78.64,428,17.89,17.89,0,0,1,60.75,445.93Z" transform="translate(-29.46 -29.06)"/><path d="M214,393.37A32.63,32.63,0,0,0,181.39,426v52.88s.65,4.66,6.91,4.66,6.75-4.83,6.75-4.83V452.54h0a32.62,32.62,0,1,0,19-59.17Zm-.16,50A17.36,17.36,0,1,1,231.21,426,17.36,17.36,0,0,1,213.86,443.36Z" transform="translate(-29.46 -29.06)"/><rect x="250.29" y="341.76" width="13.5" height="88.29" rx="6.21"/><circle cx="107.46" cy="350.11" r="8.36"/><rect x="100.82" y="365.76" width="13.18" height="61.71" rx="6.16"/><path d="M361.71,393.86A32.14,32.14,0,1,0,393.86,426,32.14,32.14,0,0,0,361.71,393.86Zm0,53.89A19.72,19.72,0,1,1,381.43,428,19.72,19.72,0,0,1,361.71,447.75Z" transform="translate(-29.46 -29.06)"/><path d="M452.57,443.36,434.14,399s-3.64-4.82-8.46-2.09c0,0-4.66.16-4.66,7.71l23,54.65s3.11,8.84-7.21,11.57H426.16s-5.46,6.91,0,11.09a34.16,34.16,0,0,0,20.57,0s8.84-3.7,15.27-25.07l21.54-55.77s-1.29-5.63-4.83-5.95-3.69-1.6-7.23.81S452.57,443.36,452.57,443.36Z" transform="translate(-29.46 -29.06)"/></svg>