<svg id="Layer_2" data-name="Layer 2" xmlns="http://www.w3.org/2000/svg" viewBox="0 0 291.84 336.1"><defs><style>.cls-1{fill:#fff;}</style></defs><path class="cls-1" d="M405.43,328.93s-100.93-54-10.29-136.29c0,0-41.14-59.14-126-18.64,0,0-9,2.57-42.43-11.57,0,0-50.14-15.43-90.64,27.64,0,0-31.5,28.93-19.93,99,0,0,14.15,94.5,75.86,127.93,0,0,14.79,9.64,43.07-5.14,0,0,30.86-16.07,63,1.93,0,0,32.79,19.28,61.72-12.22C359.79,401.57,390.64,369.43,405.43,328.93Z" transform="translate(-113.59 -83.99)"/><path class="cls-1" d="M256,164.36s74.86-.65,69.71-80.36C325.71,84,260.86,81.43,256,164.36Z" transform="translate(-113.59 -83.99)"/></svg>