<svg id="Layer_1" data-name="Layer 1" xmlns="http://www.w3.org/2000/svg" viewBox="0 0 190.19 189.03"><defs><style>.cls-1{fill:#18d1ff;}.cls-2{fill:#0166fe;}.cls-3{fill:#0100cc;}</style></defs><path class="cls-1" d="M126.92,164.66s3.29,3.05,2.68,4.78c-1.4,4-7.64,5.8-11.7,4.71-6.47-1.75-12.39-9.19-12.33-15.9.08-9.84,10.15-17.8,18.5-23,8.6-5.35,19.53-6.81,29.66-6.64,11,.18,22.79,2.27,32,8.3a29.23,29.23,0,0,1,11.39,14.47c1.14,3.29,0,10.44,0,10.44s9.06-12.51,12.34-19.45c3.9-8.28,9.63-17,8.54-26.1a16.41,16.41,0,0,0-6.65-10.67c-10.87-7.91-25.7-9.28-39.14-9.73-13.89-.46-28,2.5-41,7.35-8.87,3.3-17.56,8-24.43,14.47C99,125,91.59,133.92,89,144.25c-1.7,6.7-1.34,14.54,1.9,20.64,2.93,5.51,8.69,9.54,14.47,11.87s12.46,3.3,18.27,1.42c3.84-1.24,9.12-3.79,9.25-7.83.19-5.95-5.93-5.7-5.93-5.7Z" transform="translate(-29.12 -6.66)"/><path class="cls-2" d="M123.7,168.16s-.86-2.65-.13-3.6c1.19-1.53,3.87-1.95,5.7-1.27,2.65,1,5,4,5,6.82,0,3.62-3.18,7.14-6.41,8.78-7,3.58-16.24,2.56-23.72,0-6.35-2.17-12.56-6.52-15.9-12.34-4.84-8.44-6-19.46-3.79-28.94,2.22-9.68,9.43-17.79,16.37-24.91a81.42,81.42,0,0,1,26.33-18.27c11.29-4.73,23.86-6,36.06-6.88A123,123,0,0,1,194.78,89c6.49,1.23,13.05,3.06,18.74,6.4,2.24,1.32,5.79,5.22,5.79,5.22s-1.56-20-4.6-29.41c-2.63-8.18-5.43-17.06-11.62-23-4.39-4.22-10.66-6.31-16.61-7.58-11.3-2.42-23.27-1.83-34.63.22-13.27,2.4-26.1,7.57-38,13.94A131.54,131.54,0,0,0,83.29,77.12C76,84.4,69,92.59,64.78,102a74.26,74.26,0,0,0-6.4,30.6,56.86,56.86,0,0,0,5.45,24.43c3.44,7,9,13,15,18A56.57,56.57,0,0,0,96.57,185a50.32,50.32,0,0,0,19,2.87c7.48-.42,16-1,21.68-5.86,3.33-2.83,5.74-7.6,5.4-12a10.7,10.7,0,0,0-5-7.69c-2.85-1.77-6.74-2.85-10-2-3,.8-5.51,2.41-5.89,4.92-.18,1.19,2,2.83,2,2.83Z" transform="translate(-29.12 -6.66)"/><path class="cls-3" d="M70.62,77.71A107.75,107.75,0,0,1,99.1,51.92a140.85,140.85,0,0,1,48.37-18c14.38-2.54,43.8.27,43.8.27s-14.51-12.26-22.84-16.66a89.93,89.93,0,0,0-22.57-8.06,106.28,106.28,0,0,0-28.48-2.69,85,85,0,0,0-22.57,4.57c-9,3-17.83,6.88-25.53,12.36A88.34,88.34,0,0,0,47,46a107.29,107.29,0,0,0-15.86,37.9,90.67,90.67,0,0,0-.27,36.54,95.69,95.69,0,0,0,44.61,62.06,88.71,88.71,0,0,0,32,12.1c10.9,1.72,22.49,1.55,33.06-1.62,6.75-2,15-4.46,18.2-10.74s2.29-15.47-2.08-21c-5.24-6.58-15.51-8.41-23.92-8.06-5,.19-10.92,1.77-13.7,5.9a7.7,7.7,0,0,0-.09,8.5c1.19,1.7,5.71,2.63,5.79,2.65-.13-.08-3.67-2.21-4.18-4.07a4.34,4.34,0,0,1,1.44-4.39c2.24-2.14,5.72-3,8.82-3,4.22,0,9.24.84,12,4s3.59,8.56,2.29,12.63c-1.6,5-6.6,8.62-11.28,11-5.59,2.85-12.27,3.14-18.55,3.22a63.66,63.66,0,0,1-21.76-3.22,72.06,72.06,0,0,1-23.38-13.71A54.53,54.53,0,0,1,57.2,156.17a53.72,53.72,0,0,1-5.38-20.41,84.65,84.65,0,0,1,4.3-30.91A89.31,89.31,0,0,1,70.62,77.71Z" transform="translate(-29.12 -6.66)"/></svg>